<svg xmlns="http://www.w3.org/2000/svg" version="1.1" xmlns:xlink="http://www.w3.org/1999/xlink" width="1000" height="1000"><g clip-path="url(#SvgjsClipPath1095)"><rect width="1000" height="1000" fill="#ffffff"></rect><g transform="matrix(1.5625,0,0,1.5625,100,100)"><svg xmlns="http://www.w3.org/2000/svg" version="1.1" xmlns:xlink="http://www.w3.org/1999/xlink" width="512" height="512"><svg xmlns="http://www.w3.org/2000/svg" xmlns:xlink="http://www.w3.org/1999/xlink" width="512" zoomAndPan="magnify" viewBox="0 0 384 383.999986" height="512" preserveAspectRatio="xMidYMid meet" version="1.0"><defs><filter x="0%" y="0%" width="100%" height="100%" id="46fc0d01e8"><feColorMatrix values="0 0 0 0 1 0 0 0 0 1 0 0 0 0 1 0 0 0 1 0" color-interpolation-filters="sRGB"></feColorMatrix></filter><mask id="a27f81ce90"><g filter="url(#46fc0d01e8)"><rect x="-38.4" width="460.8" fill="#000000" y="-38.399999" height="460.799983" fill-opacity="0.85"></rect></g></mask><clipPath id="cc7a9443b1"><path d="M 0.890625 0.542969 L 200.839844 0.542969 L 200.839844 200.480469 L 0.890625 200.480469 Z M 0.890625 0.542969 " clip-rule="nonzero"></path></clipPath><clipPath id="a04702f543"><rect x="0" width="201" y="0" height="201"></rect></clipPath><mask id="af2a919866"><g filter="url(#46fc0d01e8)"><rect x="-38.4" width="460.8" fill="#000000" y="-38.399999" height="460.799983" fill-opacity="0.85"></rect></g></mask><clipPath id="8592e2fa2a"><path d="M 0.300781 0.550781 L 200.359375 0.550781 L 200.359375 200.679688 L 0.300781 200.679688 Z M 0.300781 0.550781 " clip-rule="nonzero"></path></clipPath><clipPath id="5f417cdaed"><rect x="0" width="201" y="0" height="201"></rect></clipPath><mask id="ae134f3508"><g filter="url(#46fc0d01e8)"><rect x="-38.4" width="460.8" fill="#000000" y="-38.399999" height="460.799983" fill-opacity="0.85"></rect></g></mask><clipPath id="fb1fc36067"><path d="M 0.203125 0.542969 L 200.320312 0.542969 L 200.320312 200.480469 L 0.203125 200.480469 Z M 0.203125 0.542969 " clip-rule="nonzero"></path></clipPath><clipPath id="d3643a12ae"><rect x="0" width="201" y="0" height="201"></rect></clipPath><clipPath id="SvgjsClipPath1095"><rect width="1000" height="1000" x="0" y="0" rx="500" ry="500"></rect></clipPath></defs><rect x="-38.4" width="460.8" fill="#ffffff" y="-38.399999" height="460.799983" fill-opacity="1"></rect><rect x="-38.4" width="460.8" fill="#ffffff" y="-38.399999" height="460.799983" fill-opacity="1"></rect><g mask="url(#a27f81ce90)"><g transform="matrix(1, 0, 0, 1, 13, 160)"><g clip-path="url(#a04702f543)"><g clip-path="url(#cc7a9443b1)"><path fill="#30694d" d="M 200.789062 100.492188 C 200.789062 102.128906 200.75 103.761719 200.667969 105.394531 C 200.589844 107.03125 200.46875 108.660156 200.308594 110.289062 C 200.148438 111.917969 199.945312 113.539062 199.707031 115.15625 C 199.46875 116.773438 199.1875 118.386719 198.867188 119.992188 C 198.550781 121.59375 198.191406 123.191406 197.792969 124.777344 C 197.394531 126.363281 196.960938 127.941406 196.484375 129.503906 C 196.011719 131.070312 195.496094 132.625 194.945312 134.164062 C 194.394531 135.703125 193.804688 137.230469 193.179688 138.742188 C 192.554688 140.25 191.890625 141.746094 191.191406 143.226562 C 190.492188 144.703125 189.757812 146.164062 188.988281 147.605469 C 188.214844 149.050781 187.410156 150.472656 186.570312 151.875 C 185.726562 153.277344 184.851562 154.660156 183.945312 156.019531 C 183.035156 157.378906 182.09375 158.71875 181.121094 160.03125 C 180.144531 161.34375 179.140625 162.632812 178.101562 163.898438 C 177.0625 165.164062 175.996094 166.402344 174.898438 167.613281 C 173.796875 168.824219 172.671875 170.007812 171.515625 171.167969 C 170.359375 172.324219 169.171875 173.449219 167.960938 174.550781 C 166.75 175.648438 165.511719 176.714844 164.246094 177.753906 C 162.980469 178.789062 161.691406 179.796875 160.378906 180.769531 C 159.066406 181.746094 157.726562 182.6875 156.367188 183.597656 C 155.007812 184.503906 153.625 185.378906 152.222656 186.222656 C 150.820312 187.0625 149.398438 187.867188 147.957031 188.640625 C 146.511719 189.410156 145.050781 190.144531 143.574219 190.84375 C 142.09375 191.542969 140.601562 192.207031 139.089844 192.832031 C 137.578125 193.457031 136.050781 194.046875 134.511719 194.597656 C 132.972656 195.148438 131.417969 195.660156 129.851562 196.136719 C 128.289062 196.613281 126.710938 197.046875 125.125 197.445312 C 123.539062 197.84375 121.941406 198.199219 120.339844 198.519531 C 118.734375 198.839844 117.125 199.117188 115.503906 199.359375 C 113.886719 199.597656 112.265625 199.800781 110.636719 199.960938 C 109.007812 200.121094 107.378906 200.238281 105.742188 200.320312 C 104.109375 200.402344 102.476562 200.441406 100.839844 200.441406 C 99.203125 200.441406 97.570312 200.402344 95.933594 200.320312 C 94.300781 200.238281 92.671875 200.121094 91.042969 199.960938 C 89.414062 199.800781 87.792969 199.597656 86.175781 199.359375 C 84.554688 199.117188 82.945312 198.839844 81.339844 198.519531 C 79.734375 198.199219 78.140625 197.84375 76.554688 197.445312 C 74.96875 197.046875 73.390625 196.613281 71.824219 196.136719 C 70.261719 195.660156 68.707031 195.148438 67.167969 194.597656 C 65.628906 194.046875 64.101562 193.457031 62.589844 192.832031 C 61.078125 192.207031 59.585938 191.542969 58.105469 190.84375 C 56.628906 190.144531 55.167969 189.410156 53.722656 188.640625 C 52.28125 187.867188 50.859375 187.0625 49.457031 186.222656 C 48.050781 185.378906 46.671875 184.503906 45.3125 183.597656 C 43.949219 182.6875 42.613281 181.746094 41.300781 180.769531 C 39.984375 179.796875 38.695312 178.789062 37.433594 177.753906 C 36.167969 176.714844 34.929688 175.648438 33.71875 174.550781 C 32.503906 173.449219 31.320312 172.324219 30.164062 171.167969 C 29.007812 170.007812 27.878906 168.824219 26.78125 167.613281 C 25.683594 166.402344 24.617188 165.164062 23.578125 163.898438 C 22.539062 162.632812 21.535156 161.34375 20.558594 160.03125 C 19.585938 158.71875 18.644531 157.378906 17.734375 156.019531 C 16.824219 154.660156 15.953125 153.277344 15.109375 151.875 C 14.269531 150.472656 13.464844 149.050781 12.691406 147.605469 C 11.921875 146.164062 11.1875 144.703125 10.488281 143.226562 C 9.789062 141.746094 9.125 140.25 8.5 138.742188 C 7.871094 137.230469 7.285156 135.703125 6.734375 134.164062 C 6.183594 132.625 5.667969 131.070312 5.195312 129.503906 C 4.71875 127.941406 4.28125 126.363281 3.886719 124.777344 C 3.488281 123.191406 3.128906 121.59375 2.8125 119.992188 C 2.492188 118.386719 2.210938 116.773438 1.972656 115.15625 C 1.730469 113.539062 1.53125 111.917969 1.371094 110.289062 C 1.210938 108.660156 1.089844 107.03125 1.011719 105.394531 C 0.929688 103.761719 0.890625 102.128906 0.890625 100.492188 C 0.890625 98.855469 0.929688 97.222656 1.011719 95.585938 C 1.089844 93.953125 1.210938 92.324219 1.371094 90.695312 C 1.53125 89.066406 1.730469 87.445312 1.972656 85.824219 C 2.210938 84.207031 2.492188 82.597656 2.8125 80.992188 C 3.128906 79.386719 3.488281 77.792969 3.886719 76.207031 C 4.28125 74.617188 4.71875 73.042969 5.195312 71.476562 C 5.667969 69.914062 6.183594 68.359375 6.734375 66.820312 C 7.285156 65.28125 7.871094 63.753906 8.5 62.242188 C 9.125 60.730469 9.789062 59.234375 10.488281 57.757812 C 11.1875 56.277344 11.921875 54.816406 12.691406 53.375 C 13.464844 51.933594 14.269531 50.511719 15.109375 49.105469 C 15.953125 47.703125 16.824219 46.324219 17.734375 44.960938 C 18.644531 43.601562 19.585938 42.265625 20.558594 40.953125 C 21.535156 39.636719 22.539062 38.347656 23.578125 37.085938 C 24.617188 35.820312 25.683594 34.582031 26.78125 33.371094 C 27.878906 32.15625 29.007812 30.972656 30.164062 29.816406 C 31.320312 28.660156 32.503906 27.53125 33.71875 26.433594 C 34.929688 25.335938 36.167969 24.265625 37.433594 23.230469 C 38.695312 22.191406 39.984375 21.1875 41.300781 20.210938 C 42.613281 19.238281 43.949219 18.296875 45.3125 17.386719 C 46.671875 16.476562 48.050781 15.601562 49.457031 14.761719 C 50.859375 13.921875 52.28125 13.113281 53.722656 12.34375 C 55.167969 11.574219 56.628906 10.835938 58.105469 10.136719 C 59.585938 9.4375 61.078125 8.777344 62.589844 8.148438 C 64.101562 7.523438 65.628906 6.9375 67.167969 6.386719 C 68.707031 5.832031 70.261719 5.320312 71.824219 4.847656 C 73.390625 4.371094 74.96875 3.933594 76.554688 3.539062 C 78.140625 3.140625 79.734375 2.78125 81.339844 2.460938 C 82.945312 2.144531 84.554688 1.863281 86.175781 1.625 C 87.792969 1.382812 89.414062 1.183594 91.042969 1.023438 C 92.671875 0.863281 94.300781 0.742188 95.933594 0.664062 C 97.570312 0.582031 99.203125 0.542969 100.839844 0.542969 C 102.476562 0.542969 104.109375 0.582031 105.742188 0.664062 C 107.378906 0.742188 109.007812 0.863281 110.636719 1.023438 C 112.265625 1.183594 113.886719 1.382812 115.503906 1.625 C 117.125 1.863281 118.734375 2.144531 120.339844 2.460938 C 121.941406 2.78125 123.539062 3.140625 125.125 3.539062 C 126.710938 3.933594 128.289062 4.371094 129.851562 4.847656 C 131.417969 5.320312 132.972656 5.832031 134.511719 6.386719 C 136.050781 6.9375 137.578125 7.523438 139.089844 8.148438 C 140.601562 8.777344 142.09375 9.4375 143.574219 10.136719 C 145.050781 10.835938 146.511719 11.574219 147.957031 12.34375 C 149.398438 13.113281 150.820312 13.921875 152.222656 14.761719 C 153.625 15.601562 155.007812 16.476562 156.367188 17.386719 C 157.726562 18.296875 159.066406 19.238281 160.378906 20.210938 C 161.691406 21.1875 162.980469 22.191406 164.246094 23.230469 C 165.511719 24.265625 166.75 25.335938 167.960938 26.433594 C 169.171875 27.53125 170.359375 28.660156 171.515625 29.816406 C 172.671875 30.972656 173.796875 32.15625 174.898438 33.371094 C 175.996094 34.582031 177.0625 35.820312 178.101562 37.085938 C 179.140625 38.347656 180.144531 39.636719 181.121094 40.953125 C 182.09375 42.265625 183.035156 43.601562 183.945312 44.960938 C 184.851562 46.324219 185.726562 47.703125 186.570312 49.105469 C 187.410156 50.511719 188.214844 51.933594 188.988281 53.375 C 189.757812 54.816406 190.492188 56.277344 191.191406 57.757812 C 191.890625 59.234375 192.554688 60.730469 193.179688 62.242188 C 193.804688 63.753906 194.394531 65.28125 194.945312 66.820312 C 195.496094 68.359375 196.011719 69.914062 196.484375 71.476562 C 196.960938 73.042969 197.394531 74.617188 197.792969 76.207031 C 198.191406 77.792969 198.550781 79.386719 198.867188 80.992188 C 199.1875 82.597656 199.46875 84.207031 199.707031 85.824219 C 199.945312 87.445312 200.148438 89.066406 200.308594 90.695312 C 200.46875 92.324219 200.589844 93.953125 200.667969 95.585938 C 200.75 97.222656 200.789062 98.855469 200.789062 100.492188 Z M 200.789062 100.492188 " fill-opacity="1" fill-rule="nonzero"></path></g></g></g></g><g mask="url(#af2a919866)"><g transform="matrix(1, 0, 0, 1, 91, 23)"><g clip-path="url(#5f417cdaed)"><g clip-path="url(#8592e2fa2a)"><path fill="#aeaeae" d="M 200.199219 100.5 C 200.199219 102.136719 200.15625 103.773438 200.078125 105.40625 C 199.996094 107.039062 199.878906 108.671875 199.714844 110.296875 C 199.554688 111.925781 199.355469 113.550781 199.117188 115.167969 C 198.875 116.785156 198.597656 118.398438 198.277344 120 C 197.957031 121.605469 197.601562 123.199219 197.203125 124.789062 C 196.804688 126.375 196.367188 127.949219 195.894531 129.515625 C 195.417969 131.082031 194.90625 132.632812 194.355469 134.171875 C 193.804688 135.714844 193.214844 137.238281 192.589844 138.75 C 191.964844 140.261719 191.300781 141.757812 190.601562 143.234375 C 189.902344 144.714844 189.167969 146.175781 188.394531 147.617188 C 187.625 149.058594 186.820312 150.484375 185.976562 151.886719 C 185.136719 153.289062 184.261719 154.671875 183.355469 156.03125 C 182.445312 157.390625 181.503906 158.726562 180.527344 160.042969 C 179.554688 161.355469 178.546875 162.644531 177.511719 163.910156 C 176.472656 165.171875 175.40625 166.410156 174.304688 167.625 C 173.207031 168.835938 172.082031 170.019531 170.921875 171.175781 C 169.765625 172.332031 168.582031 173.460938 167.371094 174.558594 C 166.160156 175.65625 164.921875 176.726562 163.65625 177.761719 C 162.390625 178.800781 161.101562 179.808594 159.789062 180.78125 C 158.476562 181.757812 157.136719 182.699219 155.777344 183.605469 C 154.417969 184.515625 153.035156 185.390625 151.632812 186.230469 C 150.230469 187.070312 148.808594 187.878906 147.363281 188.648438 C 145.921875 189.421875 144.460938 190.15625 142.984375 190.855469 C 141.503906 191.554688 140.007812 192.21875 138.496094 192.84375 C 136.988281 193.46875 135.460938 194.058594 133.921875 194.609375 C 132.378906 195.160156 130.828125 195.671875 129.261719 196.148438 C 127.695312 196.621094 126.121094 197.058594 124.535156 197.457031 C 122.949219 197.851562 121.351562 198.210938 119.746094 198.53125 C 118.144531 198.847656 116.53125 199.128906 114.914062 199.371094 C 113.296875 199.609375 111.671875 199.808594 110.046875 199.96875 C 108.417969 200.128906 106.785156 200.25 105.152344 200.332031 C 103.519531 200.410156 101.882812 200.449219 100.25 200.449219 C 98.613281 200.449219 96.976562 200.410156 95.34375 200.332031 C 93.710938 200.25 92.078125 200.128906 90.453125 199.96875 C 88.824219 199.808594 87.203125 199.609375 85.582031 199.371094 C 83.964844 199.128906 82.355469 198.847656 80.75 198.53125 C 79.144531 198.210938 77.550781 197.851562 75.964844 197.457031 C 74.375 197.058594 72.800781 196.621094 71.234375 196.148438 C 69.667969 195.671875 68.117188 195.160156 66.578125 194.609375 C 65.035156 194.058594 63.511719 193.46875 62 192.84375 C 60.488281 192.21875 58.992188 191.554688 57.515625 190.855469 C 56.035156 190.15625 54.574219 189.421875 53.132812 188.648438 C 51.691406 187.878906 50.269531 187.070312 48.863281 186.230469 C 47.460938 185.390625 46.082031 184.515625 44.71875 183.605469 C 43.359375 182.699219 42.023438 181.757812 40.710938 180.78125 C 39.394531 179.808594 38.105469 178.800781 36.839844 177.761719 C 35.578125 176.726562 34.339844 175.65625 33.128906 174.558594 C 31.914062 173.460938 30.730469 172.332031 29.574219 171.175781 C 28.417969 170.019531 27.289062 168.835938 26.191406 167.625 C 25.09375 166.410156 24.023438 165.171875 22.988281 163.910156 C 21.949219 162.644531 20.941406 161.355469 19.96875 160.042969 C 18.996094 158.726562 18.054688 157.390625 17.144531 156.03125 C 16.234375 154.671875 15.359375 153.289062 14.519531 151.886719 C 13.679688 150.484375 12.871094 149.058594 12.101562 147.617188 C 11.332031 146.175781 10.59375 144.714844 9.894531 143.234375 C 9.195312 141.757812 8.535156 140.261719 7.90625 138.75 C 7.28125 137.238281 6.691406 135.714844 6.140625 134.171875 C 5.589844 132.632812 5.078125 131.082031 4.601562 129.515625 C 4.128906 127.949219 3.691406 126.375 3.296875 124.789062 C 2.898438 123.199219 2.539062 121.605469 2.21875 120 C 1.902344 118.398438 1.621094 116.785156 1.382812 115.167969 C 1.140625 113.550781 0.941406 111.925781 0.78125 110.296875 C 0.621094 108.671875 0.5 107.039062 0.421875 105.40625 C 0.339844 103.773438 0.300781 102.136719 0.300781 100.5 C 0.300781 98.867188 0.339844 97.230469 0.421875 95.597656 C 0.5 93.964844 0.621094 92.332031 0.78125 90.703125 C 0.941406 89.078125 1.140625 87.453125 1.382812 85.835938 C 1.621094 84.21875 1.902344 82.605469 2.21875 81.003906 C 2.539062 79.398438 2.898438 77.804688 3.296875 76.214844 C 3.691406 74.628906 4.128906 73.054688 4.601562 71.488281 C 5.078125 69.921875 5.589844 68.371094 6.140625 66.828125 C 6.691406 65.289062 7.28125 63.765625 7.90625 62.253906 C 8.535156 60.742188 9.195312 59.246094 9.894531 57.769531 C 10.59375 56.289062 11.332031 54.828125 12.101562 53.386719 C 12.871094 51.945312 13.679688 50.519531 14.519531 49.117188 C 15.359375 47.714844 16.234375 46.332031 17.144531 44.972656 C 18.054688 43.613281 18.996094 42.277344 19.96875 40.960938 C 20.941406 39.648438 21.949219 38.359375 22.988281 37.09375 C 24.023438 35.832031 25.09375 34.59375 26.191406 33.378906 C 27.289062 32.167969 28.417969 30.984375 29.574219 29.828125 C 30.730469 28.671875 31.914062 27.542969 33.128906 26.445312 C 34.339844 25.347656 35.578125 24.277344 36.839844 23.238281 C 38.105469 22.203125 39.394531 21.195312 40.710938 20.222656 C 42.023438 19.246094 43.359375 18.304688 44.71875 17.398438 C 46.082031 16.488281 47.460938 15.613281 48.863281 14.773438 C 50.269531 13.929688 51.691406 13.125 53.132812 12.355469 C 54.574219 11.582031 56.035156 10.847656 57.515625 10.148438 C 58.992188 9.449219 60.488281 8.785156 62 8.160156 C 63.511719 7.535156 65.035156 6.945312 66.578125 6.394531 C 68.117188 5.84375 69.667969 5.332031 71.234375 4.855469 C 72.800781 4.382812 74.375 3.945312 75.964844 3.546875 C 77.550781 3.152344 79.144531 2.792969 80.75 2.472656 C 82.355469 2.152344 83.964844 1.875 85.582031 1.632812 C 87.203125 1.394531 88.824219 1.195312 90.453125 1.035156 C 92.078125 0.875 93.710938 0.753906 95.34375 0.671875 C 96.976562 0.59375 98.613281 0.550781 100.25 0.550781 C 101.882812 0.550781 103.519531 0.59375 105.152344 0.671875 C 106.785156 0.753906 108.417969 0.875 110.046875 1.035156 C 111.671875 1.195312 113.296875 1.394531 114.914062 1.632812 C 116.53125 1.875 118.144531 2.152344 119.746094 2.472656 C 121.351562 2.792969 122.949219 3.152344 124.535156 3.546875 C 126.121094 3.945312 127.695312 4.382812 129.261719 4.855469 C 130.828125 5.332031 132.378906 5.84375 133.921875 6.394531 C 135.460938 6.945312 136.988281 7.535156 138.496094 8.160156 C 140.007812 8.785156 141.503906 9.449219 142.984375 10.148438 C 144.460938 10.847656 145.921875 11.582031 147.363281 12.355469 C 148.808594 13.125 150.230469 13.929688 151.632812 14.773438 C 153.035156 15.613281 154.417969 16.488281 155.777344 17.398438 C 157.136719 18.304688 158.476562 19.246094 159.789062 20.222656 C 161.101562 21.195312 162.390625 22.203125 163.65625 23.238281 C 164.921875 24.277344 166.160156 25.347656 167.371094 26.445312 C 168.582031 27.542969 169.765625 28.671875 170.921875 29.828125 C 172.082031 30.984375 173.207031 32.167969 174.304688 33.378906 C 175.40625 34.59375 176.472656 35.832031 177.511719 37.09375 C 178.546875 38.359375 179.554688 39.648438 180.527344 40.960938 C 181.503906 42.277344 182.445312 43.613281 183.355469 44.972656 C 184.261719 46.332031 185.136719 47.714844 185.976562 49.117188 C 186.820312 50.519531 187.625 51.945312 188.394531 53.386719 C 189.167969 54.828125 189.902344 56.289062 190.601562 57.769531 C 191.300781 59.246094 191.964844 60.742188 192.589844 62.253906 C 193.214844 63.765625 193.804688 65.289062 194.355469 66.828125 C 194.90625 68.371094 195.417969 69.921875 195.894531 71.488281 C 196.367188 73.054688 196.804688 74.628906 197.203125 76.214844 C 197.601562 77.804688 197.957031 79.398438 198.277344 81.003906 C 198.597656 82.605469 198.875 84.21875 199.117188 85.835938 C 199.355469 87.453125 199.554688 89.078125 199.714844 90.703125 C 199.878906 92.332031 199.996094 93.964844 200.078125 95.597656 C 200.15625 97.230469 200.199219 98.867188 200.199219 100.5 Z M 200.199219 100.5 " fill-opacity="1" fill-rule="nonzero"></path></g></g></g></g><g mask="url(#ae134f3508)"><g transform="matrix(1, 0, 0, 1, 170, 160)"><g clip-path="url(#d3643a12ae)"><g clip-path="url(#fb1fc36067)"><path fill="#efcd3b" d="M 200.101562 100.492188 C 200.101562 102.128906 200.0625 103.761719 199.984375 105.394531 C 199.902344 107.03125 199.78125 108.660156 199.621094 110.289062 C 199.460938 111.917969 199.261719 113.539062 199.019531 115.15625 C 198.78125 116.773438 198.5 118.386719 198.183594 119.992188 C 197.863281 121.59375 197.503906 123.191406 197.109375 124.777344 C 196.710938 126.363281 196.273438 127.941406 195.800781 129.503906 C 195.324219 131.070312 194.8125 132.625 194.261719 134.164062 C 193.710938 135.703125 193.121094 137.230469 192.496094 138.742188 C 191.867188 140.25 191.207031 141.746094 190.507812 143.226562 C 189.808594 144.703125 189.070312 146.164062 188.300781 147.605469 C 187.53125 149.050781 186.722656 150.472656 185.882812 151.875 C 185.042969 153.277344 184.167969 154.660156 183.257812 156.019531 C 182.347656 157.378906 181.40625 158.71875 180.433594 160.03125 C 179.460938 161.34375 178.453125 162.632812 177.414062 163.898438 C 176.378906 165.164062 175.308594 166.402344 174.210938 167.613281 C 173.113281 168.824219 171.984375 170.007812 170.828125 171.167969 C 169.671875 172.324219 168.488281 173.449219 167.273438 174.550781 C 166.0625 175.648438 164.824219 176.714844 163.5625 177.753906 C 162.296875 178.789062 161.007812 179.796875 159.691406 180.769531 C 158.378906 181.746094 157.042969 182.6875 155.683594 183.597656 C 154.324219 184.503906 152.941406 185.378906 151.539062 186.222656 C 150.132812 187.0625 148.710938 187.867188 147.269531 188.640625 C 145.828125 189.410156 144.367188 190.144531 142.886719 190.84375 C 141.410156 191.542969 139.914062 192.207031 138.402344 192.832031 C 136.890625 193.457031 135.367188 194.046875 133.824219 194.597656 C 132.285156 195.148438 130.734375 195.660156 129.167969 196.136719 C 127.601562 196.613281 126.027344 197.046875 124.4375 197.445312 C 122.851562 197.84375 121.257812 198.199219 119.652344 198.519531 C 118.046875 198.839844 116.4375 199.117188 114.820312 199.359375 C 113.199219 199.597656 111.578125 199.800781 109.949219 199.960938 C 108.324219 200.121094 106.691406 200.238281 105.058594 200.320312 C 103.425781 200.402344 101.789062 200.441406 100.152344 200.441406 C 98.519531 200.441406 96.882812 200.402344 95.25 200.320312 C 93.617188 200.238281 91.984375 200.121094 90.355469 199.960938 C 88.730469 199.800781 87.105469 199.597656 85.488281 199.359375 C 83.871094 199.117188 82.257812 198.839844 80.65625 198.519531 C 79.050781 198.199219 77.453125 197.84375 75.867188 197.445312 C 74.28125 197.046875 72.707031 196.613281 71.140625 196.136719 C 69.574219 195.660156 68.023438 195.148438 66.480469 194.597656 C 64.941406 194.046875 63.414062 193.457031 61.90625 192.832031 C 60.394531 192.207031 58.898438 191.542969 57.417969 190.84375 C 55.941406 190.144531 54.480469 189.410156 53.039062 188.640625 C 51.59375 187.867188 50.171875 187.0625 48.769531 186.222656 C 47.367188 185.378906 45.984375 184.503906 44.625 183.597656 C 43.265625 182.6875 41.929688 181.746094 40.613281 180.769531 C 39.300781 179.796875 38.011719 178.789062 36.746094 177.753906 C 35.480469 176.714844 34.242188 175.648438 33.03125 174.550781 C 31.820312 173.449219 30.636719 172.324219 29.480469 171.167969 C 28.320312 170.007812 27.195312 168.824219 26.097656 167.613281 C 24.996094 166.402344 23.929688 165.164062 22.890625 163.898438 C 21.855469 162.632812 20.847656 161.34375 19.875 160.03125 C 18.898438 158.71875 17.957031 157.378906 17.050781 156.019531 C 16.140625 154.660156 15.265625 153.277344 14.425781 151.875 C 13.582031 150.472656 12.777344 149.050781 12.007812 147.605469 C 11.234375 146.164062 10.5 144.703125 9.800781 143.226562 C 9.101562 141.746094 8.4375 140.25 7.8125 138.742188 C 7.1875 137.230469 6.597656 135.703125 6.046875 134.164062 C 5.496094 132.625 4.984375 131.070312 4.507812 129.503906 C 4.035156 127.941406 3.597656 126.363281 3.199219 124.777344 C 2.800781 123.191406 2.445312 121.59375 2.125 119.992188 C 1.804688 118.386719 1.527344 116.773438 1.285156 115.15625 C 1.046875 113.539062 0.847656 111.917969 0.6875 110.289062 C 0.523438 108.660156 0.40625 107.03125 0.324219 105.394531 C 0.246094 103.761719 0.203125 102.128906 0.203125 100.492188 C 0.203125 98.855469 0.246094 97.222656 0.324219 95.585938 C 0.40625 93.953125 0.523438 92.324219 0.6875 90.695312 C 0.847656 89.066406 1.046875 87.445312 1.285156 85.824219 C 1.527344 84.207031 1.804688 82.597656 2.125 80.992188 C 2.445312 79.386719 2.800781 77.792969 3.199219 76.207031 C 3.597656 74.617188 4.035156 73.042969 4.507812 71.476562 C 4.984375 69.914062 5.496094 68.359375 6.046875 66.820312 C 6.597656 65.28125 7.1875 63.753906 7.8125 62.242188 C 8.4375 60.730469 9.101562 59.234375 9.800781 57.757812 C 10.5 56.277344 11.234375 54.816406 12.007812 53.375 C 12.777344 51.933594 13.582031 50.511719 14.425781 49.105469 C 15.265625 47.703125 16.140625 46.324219 17.050781 44.960938 C 17.957031 43.601562 18.898438 42.265625 19.875 40.953125 C 20.847656 39.636719 21.855469 38.347656 22.890625 37.085938 C 23.929688 35.820312 24.996094 34.582031 26.097656 33.371094 C 27.195312 32.15625 28.320312 30.972656 29.480469 29.816406 C 30.636719 28.660156 31.820312 27.53125 33.03125 26.433594 C 34.242188 25.335938 35.480469 24.265625 36.746094 23.230469 C 38.011719 22.191406 39.300781 21.1875 40.613281 20.210938 C 41.929688 19.238281 43.265625 18.296875 44.625 17.386719 C 45.984375 16.476562 47.367188 15.601562 48.769531 14.761719 C 50.171875 13.921875 51.59375 13.113281 53.039062 12.34375 C 54.480469 11.574219 55.941406 10.835938 57.417969 10.136719 C 58.898438 9.4375 60.394531 8.777344 61.90625 8.148438 C 63.414062 7.523438 64.941406 6.9375 66.480469 6.386719 C 68.023438 5.832031 69.574219 5.320312 71.140625 4.847656 C 72.707031 4.371094 74.28125 3.933594 75.867188 3.539062 C 77.453125 3.140625 79.050781 2.78125 80.65625 2.460938 C 82.257812 2.144531 83.871094 1.863281 85.488281 1.625 C 87.105469 1.382812 88.730469 1.183594 90.355469 1.023438 C 91.984375 0.863281 93.617188 0.742188 95.25 0.664062 C 96.882812 0.582031 98.519531 0.542969 100.152344 0.542969 C 101.789062 0.542969 103.425781 0.582031 105.058594 0.664062 C 106.691406 0.742188 108.324219 0.863281 109.949219 1.023438 C 111.578125 1.183594 113.199219 1.382812 114.820312 1.625 C 116.4375 1.863281 118.046875 2.144531 119.652344 2.460938 C 121.257812 2.78125 122.851562 3.140625 124.4375 3.539062 C 126.027344 3.933594 127.601562 4.371094 129.167969 4.847656 C 130.734375 5.320312 132.285156 5.832031 133.824219 6.386719 C 135.367188 6.9375 136.890625 7.523438 138.402344 8.148438 C 139.914062 8.777344 141.410156 9.4375 142.886719 10.136719 C 144.367188 10.835938 145.828125 11.574219 147.269531 12.34375 C 148.710938 13.113281 150.132812 13.921875 151.539062 14.761719 C 152.941406 15.601562 154.324219 16.476562 155.683594 17.386719 C 157.042969 18.296875 158.378906 19.238281 159.691406 20.210938 C 161.007812 21.1875 162.296875 22.191406 163.5625 23.230469 C 164.824219 24.265625 166.0625 25.335938 167.273438 26.433594 C 168.488281 27.53125 169.671875 28.660156 170.828125 29.816406 C 171.984375 30.972656 173.113281 32.15625 174.210938 33.371094 C 175.308594 34.582031 176.378906 35.820312 177.414062 37.085938 C 178.453125 38.347656 179.460938 39.636719 180.433594 40.953125 C 181.40625 42.265625 182.347656 43.601562 183.257812 44.960938 C 184.167969 46.324219 185.042969 47.703125 185.882812 49.105469 C 186.722656 50.511719 187.53125 51.933594 188.300781 53.375 C 189.070312 54.816406 189.808594 56.277344 190.507812 57.757812 C 191.207031 59.234375 191.867188 60.730469 192.496094 62.242188 C 193.121094 63.753906 193.710938 65.28125 194.261719 66.820312 C 194.8125 68.359375 195.324219 69.914062 195.800781 71.476562 C 196.273438 73.042969 196.710938 74.617188 197.109375 76.207031 C 197.503906 77.792969 197.863281 79.386719 198.183594 80.992188 C 198.5 82.597656 198.78125 84.207031 199.019531 85.824219 C 199.261719 87.445312 199.460938 89.066406 199.621094 90.695312 C 199.78125 92.324219 199.902344 93.953125 199.984375 95.585938 C 200.0625 97.222656 200.101562 98.855469 200.101562 100.492188 Z M 200.101562 100.492188 " fill-opacity="1" fill-rule="nonzero"></path></g></g></g></g></svg></svg></g></g></svg>